<svg width="23" height="26" viewBox="0 0 23 26" fill="none" xmlns="http://www.w3.org/2000/svg">
<path fill-rule="evenodd" clip-rule="evenodd" d="M19.55 10.3496C19.55 5.68153 16.9758 2.44158 13.6451 1.46897C13.5245 1.15707 13.3339 0.867111 13.0749 0.623795C12.1897 -0.207932 10.8104 -0.207932 9.92513 0.623795C9.66674 0.86657 9.47646 1.15578 9.35581 1.46689C6.02076 2.43523 3.45 5.66811 3.45 10.3496C3.45 13.3786 2.83933 15.0759 1.70885 16.3059C1.51984 16.5115 1.00773 16.9826 0.660846 17.3017L0.660812 17.3018C0.496716 17.4527 0.369599 17.5696 0.331159 17.6084L0 17.9442V21.8658H7.00108C7.23778 23.0873 7.90049 23.9045 9.09897 24.6358C10.5732 25.5355 12.4267 25.5355 13.9009 24.6358C14.9586 23.9904 15.6678 22.9984 15.9555 21.8658H23V17.9442L22.6688 17.6084C22.634 17.573 22.512 17.4605 22.3526 17.3134L22.3524 17.3133L22.3524 17.3133C22.0066 16.9943 21.4846 16.5127 21.2927 16.3031C20.1614 15.0674 19.55 13.368 19.55 10.3496ZM13.4973 21.8658H9.40525C9.56771 22.1682 9.84466 22.3964 10.2971 22.6725C11.0357 23.1232 11.9642 23.1232 12.7028 22.6725C13.0449 22.4638 13.3122 22.1875 13.4973 21.8658ZM19.5961 17.8565C19.8381 18.1208 20.3568 18.604 20.6999 18.9197V19.5662H2.29994V18.9202C2.64042 18.6082 3.16064 18.1254 3.4022 17.8626C4.93829 16.1913 5.74994 13.9354 5.74994 10.35C5.74994 6.00285 8.43262 3.46421 11.4999 3.46421C14.5586 3.46421 17.2499 6.01596 17.2499 10.35C17.2499 13.9239 18.0618 16.1805 19.5961 17.8565Z" fill="white"/>
</svg>
