<svg width="33" height="41" viewBox="0 0 33 41" fill="none" xmlns="http://www.w3.org/2000/svg">
<path d="M28.6579 40.2804H4.44912C2.46546 40.2804 0.805664 38.6611 0.805664 36.637V3.64346C0.805664 1.61931 2.42498 0 4.44912 0H28.6579C30.6415 0 32.3013 1.61931 32.3013 3.64346V36.6775C32.2608 38.6611 30.6415 40.2804 28.6579 40.2804Z" fill="url(#paint0_linear_0_1)"/>
<path d="M27.4027 8.13698C27.4027 7.48926 27.0384 7.16539 26.3502 7.16539H14.7721C13.3147 7.16539 9.59027 7.12491 7.84951 7.04395C7.64709 7.04395 7.48516 7.12491 7.36371 7.28684C7.24227 7.44877 7.20178 7.65119 7.20178 7.89409C7.24227 8.25843 7.28275 8.50133 7.4042 8.58229C7.52564 8.66326 7.68758 8.70374 7.97096 8.70374H8.21385C8.98303 8.70374 9.54979 8.82519 9.95462 9.10857C10.319 9.39195 10.5619 9.7563 10.6428 10.1611C10.7238 10.566 10.8048 11.1327 10.8048 11.7804V23.2371C10.6833 23.0752 10.4809 22.9942 10.238 22.9942C9.79268 22.9942 9.46882 23.3585 9.46882 23.7634C9.46882 23.9658 9.54979 24.1682 9.71172 24.3301C9.83317 24.4516 10.1165 24.7349 10.3999 25.0993C10.1975 24.9778 10.0356 24.9374 9.91413 24.9374C9.83317 24.9374 9.83317 24.9374 9.79268 24.9374C9.7522 24.9778 9.7522 25.0183 9.79268 25.0183C9.95462 25.2207 10.157 25.4636 10.3594 25.7875C10.6023 26.2733 10.7238 26.6781 10.8048 27.002V27.6902C10.7643 28.3784 10.7238 28.9047 10.6428 29.3095C10.5619 29.7143 10.319 30.0787 9.95462 30.3621C9.59027 30.6454 9.02351 30.7669 8.21385 30.7669C7.84951 30.7669 7.56613 30.8074 7.44468 30.8883C7.32323 30.9693 7.24227 31.2122 7.20178 31.617C7.20178 31.8599 7.24227 32.0623 7.36371 32.2243C7.48516 32.3862 7.64709 32.4672 7.84951 32.4672C9.59027 32.3862 13.2742 32.3457 14.7721 32.3457C16.3914 32.3457 18.0512 32.3862 19.7515 32.4672C19.9944 32.4672 20.1563 32.3862 20.2777 32.2243C20.3992 32.0623 20.4397 31.8599 20.4397 31.617C20.3992 31.2527 20.3587 31.0098 20.2373 30.9288C20.1158 30.8479 19.9539 30.8074 19.711 30.8074H19.4681C18.6989 30.8074 18.1322 30.6859 17.7273 30.4025C17.363 30.1192 17.1201 29.7548 17.0391 29.35C16.9581 28.9452 16.8772 28.3784 16.8772 27.7307V27.083C16.9177 26.7591 17.0391 26.3138 17.3225 25.828C17.4844 25.5041 17.6868 25.2612 17.8893 25.0588C17.9297 25.0183 17.9297 24.9778 17.8893 24.9778C17.8893 24.9778 17.8488 24.9374 17.7678 24.9778C17.6464 24.9778 17.4844 25.0588 17.282 25.1398C17.5654 24.7349 17.8488 24.4921 17.9702 24.3706C18.1322 24.2896 18.2131 24.0872 18.2131 23.8848C18.2131 23.4395 17.8488 23.1156 17.4439 23.1156C17.201 23.1156 16.9986 23.2371 16.8772 23.3585V20.97H24.0831C24.2855 20.97 24.4475 20.8891 24.5689 20.7271C24.6904 20.5652 24.7309 20.3628 24.7309 20.1604C24.7309 19.9175 24.6904 19.7151 24.5689 19.5531C24.4475 19.3912 24.2855 19.2698 24.0831 19.2698H16.8772V8.78471H21.2493C22.14 8.82519 22.8686 8.98712 23.3544 9.31099C23.8402 9.63485 24.2046 10.1611 24.488 10.8493C24.7309 11.5375 24.9738 12.5496 25.1357 13.8451C25.1762 14.088 25.2976 14.2499 25.5405 14.3713C25.7834 14.4928 26.0668 14.5333 26.3907 14.5333C26.6336 14.5333 26.8764 14.4523 27.1193 14.3309C27.3622 14.1689 27.4837 14.007 27.4837 13.7641L27.4027 8.13698Z" fill="#333333"/>
<path d="M15.6627 19.1487C15.6627 19.1487 15.6627 19.1082 15.6627 19.1487C15.6627 19.1082 15.6627 19.1082 15.6627 19.1082C15.6627 19.0677 15.6627 19.0273 15.6627 18.9868C15.6222 18.7844 15.5412 18.6224 15.4198 18.501C15.3388 18.6224 15.2578 18.7844 15.1769 18.9868C15.1769 19.0273 15.1769 19.0677 15.1769 19.1082C15.1769 19.1082 15.1769 19.1082 15.1769 19.1487C15.1769 19.2702 15.2983 19.3916 15.4198 19.3916C15.5817 19.3916 15.6627 19.3106 15.6627 19.1487Z" fill="white"/>
<path d="M12.424 19.1487C12.424 19.1487 12.424 19.1082 12.424 19.1487C12.424 19.1082 12.424 19.1082 12.424 19.1082C12.424 19.0677 12.424 19.0273 12.424 18.9868C12.3835 18.7844 12.3026 18.6224 12.1811 18.501C12.1002 18.6224 12.0192 18.7844 11.9382 18.9868C11.9382 19.0273 11.9382 19.0677 11.9382 19.1082C11.9382 19.1082 11.9382 19.1082 11.9382 19.1487C11.9382 19.2702 12.0597 19.3916 12.1811 19.3916C12.3431 19.3916 12.424 19.3106 12.424 19.1487Z" fill="white"/>
<path d="M16.8773 17.8937C16.432 17.4484 15.9867 17.2055 15.5009 17.2864C14.6507 17.3674 14.0435 18.258 13.8411 18.6224C13.6387 18.258 12.9909 17.3674 12.1813 17.2864C11.736 17.2459 11.2906 17.4484 10.8453 17.8937V18.177C11.2906 17.6913 11.736 17.4484 12.1813 17.4888C13.1124 17.5698 13.8006 18.8653 13.8006 18.8653L13.8816 19.0272L13.9625 18.8653C13.9625 18.8653 14.6507 17.5698 15.5818 17.4888C16.0271 17.4484 16.4725 17.6913 16.9178 18.2175V17.8937H16.8773Z" fill="white"/>
<path d="M14.7723 13.1165C14.6913 13.076 14.6913 13.0355 14.6913 12.995L16.1891 9.83736C16.1891 9.79687 16.2701 9.79688 16.2701 9.79688C16.3106 9.79688 16.3106 9.87784 16.3106 9.87784L14.8127 13.0355C14.8127 13.1165 14.8127 13.1165 14.7723 13.1165Z" fill="white"/>
<path d="M13.841 12.6713C13.8005 12.6713 13.76 12.6308 13.76 12.5903V7.97525C13.76 7.93477 13.8005 7.89429 13.841 7.89429C13.8815 7.89429 13.9219 7.93477 13.9219 7.97525V12.5903C13.8815 12.6308 13.8815 12.6713 13.841 12.6713Z" fill="white"/>
<path d="M12.8695 13.1163C12.829 13.1163 12.829 13.1163 12.7886 13.0758L11.3312 9.91812C11.3312 9.87764 11.3312 9.83716 11.3717 9.83716C11.4121 9.83716 11.4526 9.83716 11.4526 9.87764L12.9505 13.0353C12.991 13.0353 12.9505 13.1163 12.8695 13.1163C12.91 13.1163 12.91 13.1163 12.8695 13.1163Z" fill="white"/>
<path d="M12.3836 13.8856H12.3431L11.493 13.3188C11.4525 13.2783 11.4525 13.2378 11.493 13.1974C11.5335 13.1569 11.574 13.1569 11.6145 13.1974L12.4646 13.7641C12.5051 13.8046 12.5051 13.8451 12.4646 13.8856C12.4241 13.8856 12.4241 13.8856 12.3836 13.8856Z" fill="white"/>
<path d="M15.1771 14.0884C15.1366 14.0884 15.1366 14.0884 15.1366 14.0479C15.0962 14.0074 15.1366 13.9669 15.1366 13.9264L16.3511 13.0358C16.3916 12.9953 16.4321 13.0358 16.4726 13.0358C16.5131 13.0763 16.4726 13.1168 16.4726 13.1573L15.2581 14.0479C15.1771 14.0884 15.1771 14.0884 15.1771 14.0884Z" fill="white"/>
<path d="M11.9788 16.3143C11.9384 16.3143 11.9384 16.3143 11.8979 16.2738C11.8574 16.2334 11.8979 16.1929 11.9384 16.1524L12.4646 15.8285C12.5051 15.7881 12.5456 15.8285 12.5861 15.869C12.6266 15.9095 12.5861 15.95 12.5456 15.9905L11.9788 16.3143C11.9788 16.3143 12.0193 16.3143 11.9788 16.3143Z" fill="white"/>
<path d="M12.3837 15.019L11.4525 14.8975C11.4121 14.8975 11.3716 14.857 11.3716 14.8166C11.3716 14.7761 11.4121 14.7356 11.4525 14.7356L12.3837 14.857C12.4241 14.857 12.4646 14.8975 12.4646 14.938C12.4646 14.9785 12.4241 15.019 12.3837 15.019Z" fill="white"/>
<path d="M15.3388 14.9381C15.2983 14.9381 15.2578 14.8976 15.2578 14.8571C15.2578 14.8166 15.2578 14.7761 15.2983 14.7761L16.3508 14.5737C16.3913 14.5737 16.4318 14.5737 16.4318 14.6142C16.4318 14.6547 16.4318 14.6952 16.3913 14.6952L15.3388 14.9381Z" fill="white"/>
<path d="M15.8651 16.3147C15.8246 16.3147 15.8246 16.3147 15.8651 16.3147L15.1364 15.9503C15.0959 15.9503 15.0959 15.8693 15.0959 15.8693C15.0959 15.8289 15.1769 15.8289 15.1769 15.8289L15.8651 16.1932C15.9056 16.1932 15.9056 16.2742 15.9056 16.2742C15.9056 16.3147 15.8651 16.3147 15.8651 16.3147Z" fill="white"/>
<path d="M10.8451 32.3458C10.8046 32.3458 10.7642 32.3053 10.7642 32.2648C10.7642 32.1029 10.8046 31.9005 11.0071 31.6981C11.25 31.4957 11.4929 31.4957 11.6548 31.4957C11.6953 31.4957 11.7357 31.4957 11.7762 31.4957C11.8572 31.4552 11.9382 31.3742 12.0191 31.2528C12.0596 31.1718 12.1406 31.0504 12.2215 31.0099C12.3835 30.9289 12.5454 30.8479 12.6669 30.8075C12.8288 30.767 13.0312 30.7265 13.1931 30.6455C13.7599 30.4836 14.3267 30.3621 14.8124 30.0383C15.4197 29.6739 15.9055 28.8643 15.6221 28.1761C15.4197 27.6498 14.8934 27.3664 14.5695 27.2855C14.2862 27.2045 14.0028 27.1235 13.7194 27.0426C13.517 27.0021 13.3146 26.9616 13.1122 26.8806C12.8288 26.7997 12.424 26.6377 12.2215 26.2734C12.0191 25.9495 12.0596 25.5447 12.262 25.1803C12.424 24.897 12.6669 24.6541 13.0312 24.4112C13.1526 24.3302 13.3146 24.2492 13.436 24.1683C13.6384 24.0468 13.8813 23.9254 14.0838 23.7634C14.4076 23.5205 14.8529 23.0752 14.8934 22.7109C14.9339 22.4275 14.7315 22.1846 14.2862 21.9822C14.1647 21.9417 13.9623 21.8607 13.7599 21.8203C13.598 21.7798 13.4765 21.7393 13.3551 21.6988C13.2741 21.6583 13.2741 21.6179 13.2741 21.6179C13.2741 21.5369 13.3955 21.4559 13.7599 21.294C13.9218 21.213 14.2457 21.0916 14.2862 21.0106C14.2862 21.0106 14.2862 21.0106 14.2457 21.0106C14.2052 21.0106 14.2052 20.9701 14.2052 20.9296C14.2052 20.8892 14.2457 20.8892 14.2862 20.8892C14.3671 20.9296 14.4076 20.9701 14.4076 21.0511C14.4076 21.1725 14.2052 21.294 13.7599 21.4559C13.6384 21.4964 13.517 21.5774 13.436 21.6179C13.517 21.6583 13.6384 21.6583 13.7599 21.6988C13.9623 21.7393 14.1647 21.8203 14.2862 21.8607C14.8124 22.1036 15.0553 22.387 14.9744 22.7514C14.8934 23.1562 14.4481 23.6015 14.0838 23.8849C13.8813 24.0468 13.6384 24.1683 13.436 24.2897C13.3146 24.3707 13.1526 24.4517 13.0312 24.5326C12.6669 24.7755 12.424 25.0184 12.3025 25.2613C12.1406 25.5852 12.1001 25.9495 12.262 26.2329C12.3835 26.4758 12.6669 26.6377 13.0717 26.7592C13.2741 26.7997 13.4765 26.8806 13.6789 26.9211C13.9623 27.0021 14.2457 27.0426 14.5291 27.164C14.8529 27.2855 15.4602 27.5688 15.6626 28.1761C15.946 28.9452 15.4197 29.7954 14.772 30.2002C14.2862 30.5241 13.6789 30.686 13.1122 30.8075C12.9502 30.8479 12.7478 30.8884 12.5859 30.9694C12.424 31.0099 12.3025 31.0504 12.1811 31.1313C12.1001 31.1718 12.0596 31.2528 12.0191 31.3337C11.9382 31.4552 11.8572 31.5766 11.6953 31.6171C11.6548 31.6171 11.5738 31.6171 11.5333 31.6171C11.3714 31.6171 11.2095 31.6171 11.0071 31.779C10.9261 31.9815 10.9261 32.1029 10.9261 32.2648C10.9261 32.3053 10.8856 32.3458 10.8451 32.3458Z" fill="white"/>
<path d="M12.262 24.9375C12.2215 24.9375 12.2215 24.9375 12.181 24.8971C12.0191 24.6137 12.181 24.2493 12.4239 24.0469C12.6263 23.885 12.8692 23.804 13.1121 23.6826L13.2336 23.6421C13.4765 23.5611 13.7194 23.4397 13.9623 23.3182C14.0837 23.2777 14.1647 23.1968 14.2457 23.1158C14.3266 22.9944 14.3266 22.9944 14.3266 22.8324C14.3266 22.711 14.4076 22.63 14.4481 22.549C14.529 22.4681 14.529 22.4681 14.529 22.4276C14.3671 22.1847 14.2457 22.2252 13.9623 22.2252C13.9218 22.2252 13.8813 22.2252 13.8408 22.2252C13.5574 22.2252 13.4765 22.2252 13.4765 22.1442C13.436 22.1037 13.4765 22.0228 13.517 22.0228L13.5574 21.9823C13.5574 21.9823 13.5574 21.9823 13.517 21.9418C13.4765 21.9418 13.436 21.9013 13.3955 21.8608C12.9502 21.6179 12.7478 21.456 12.7478 21.3346C12.7883 21.2131 12.9097 21.1726 13.0312 21.1726C13.1931 21.1726 13.3955 21.0512 13.5979 20.9702C13.9623 20.8083 14.2861 20.6464 14.529 20.8083C14.5695 20.8083 14.5695 20.8893 14.5695 20.9297C14.5695 20.9702 14.4885 20.9702 14.4481 20.9702C14.2861 20.8893 13.9623 21.0107 13.6789 21.1726C13.4765 21.2536 13.2336 21.375 13.0312 21.375C12.9097 21.375 12.8692 21.4155 12.8692 21.4155C12.8692 21.456 13.0716 21.5775 13.436 21.7799C13.517 21.8204 13.5574 21.8608 13.5979 21.8608C13.6384 21.9013 13.6789 21.9418 13.6789 21.9823C13.6789 22.0228 13.6789 22.0633 13.6384 22.1037C13.6789 22.1037 13.7599 22.1037 13.8408 22.1037C13.8813 22.1037 13.9218 22.1037 13.9623 22.1037C14.2457 22.1037 14.4481 22.0633 14.6505 22.3871C14.7314 22.5086 14.6505 22.63 14.5695 22.711C14.529 22.7919 14.4885 22.8324 14.4885 22.8729C14.529 23.0753 14.4885 23.0753 14.4076 23.2373C14.3266 23.3587 14.2052 23.4397 14.0837 23.5206C13.8408 23.6421 13.5979 23.7635 13.355 23.8445L13.2336 23.885C12.9907 23.9659 12.7883 24.0469 12.5859 24.2088C12.3834 24.3708 12.262 24.6542 12.3834 24.8971C12.343 24.8971 12.3025 24.9375 12.262 24.9375Z" fill="white"/>
<path d="M14.9744 26.921C14.9339 26.921 14.9339 26.921 14.8934 26.8805C14.772 26.6781 14.4481 26.5971 14.1242 26.4756L14.0433 26.4352C13.9218 26.3947 13.598 26.2327 13.4765 26.1518C13.1931 25.9494 12.9907 25.6255 12.9907 25.2612C12.9907 24.8968 13.1527 24.5729 13.436 24.3705C13.4765 24.33 13.517 24.3705 13.5575 24.3705C13.598 24.411 13.5575 24.4515 13.5575 24.492C13.3146 24.6539 13.1527 24.9373 13.1527 25.2612C13.1527 25.5445 13.3146 25.8279 13.5575 25.9898C13.6789 26.0708 13.9623 26.1923 14.0838 26.2327L14.1647 26.2732C14.5291 26.3947 14.8934 26.4756 15.0553 26.759C15.0553 26.84 15.0553 26.921 14.9744 26.921Z" fill="white"/>
<path d="M13.1122 30.0385C13.1122 30.0385 13.0717 30.0385 13.1122 30.0385C13.0312 29.9981 13.0312 29.9576 13.0312 29.9171C13.2741 29.4718 13.5575 29.3503 13.8004 29.2694C13.8814 29.2289 13.9624 29.1884 14.0433 29.1479C14.2862 29.0265 14.4077 28.905 14.4886 28.6621C14.5291 28.5407 14.6101 28.2573 14.4077 28.0549C14.3672 28.0144 14.3672 27.9739 14.4077 27.9334C14.4481 27.893 14.4886 27.893 14.5291 27.9334C14.7315 28.0954 14.772 28.3788 14.6506 28.7026C14.5291 28.9455 14.4077 29.1074 14.1243 29.2694C14.0433 29.3099 13.9624 29.3503 13.8814 29.3908C13.6385 29.5123 13.3956 29.5932 13.1527 29.9981C13.1527 30.0385 13.1527 30.0385 13.1122 30.0385Z" fill="white"/>
<path d="M15.5411 27.9334C15.5006 27.9334 15.5006 27.9334 15.5006 27.8929C15.1768 27.5286 15.2982 27.2047 15.3792 27.0428C15.4601 26.9213 15.6221 26.8809 15.7435 26.8809C15.865 26.9213 15.9055 27.0023 15.9459 27.0833C15.9459 27.1238 15.9054 27.1642 15.865 27.1642C15.8245 27.1642 15.784 27.1238 15.784 27.0833C15.784 27.0833 15.784 27.0023 15.703 27.0023C15.6221 27.0023 15.5006 27.0023 15.4601 27.0833C15.3792 27.2452 15.2982 27.4476 15.5816 27.731C15.6221 27.7715 15.6221 27.812 15.5816 27.8524C15.5816 27.9334 15.5411 27.9334 15.5411 27.9334Z" fill="white"/>
<path d="M13.1932 21.2535C13.1527 21.2535 13.1122 21.2535 13.1122 21.2535C13.0717 21.2535 12.9503 21.1725 12.8693 21.132C12.7883 21.0511 12.7883 20.9701 12.7883 20.8891V20.8487C12.7883 20.6462 12.7883 20.5653 12.8288 20.5248C12.9503 20.4438 13.1932 20.6058 13.2336 20.6462C13.3146 20.7272 13.3551 20.7677 13.3956 20.8487C13.3956 20.8891 13.4361 20.9701 13.4361 21.0511C13.4361 21.0916 13.4361 21.1725 13.3956 21.213C13.3551 21.2535 13.3146 21.294 13.2741 21.294C13.2336 21.2535 13.1932 21.2535 13.1932 21.2535ZM12.9098 20.8082C12.9098 20.8891 12.9098 20.9296 12.9503 20.9701C12.9907 21.0106 13.0312 21.0511 13.1122 21.0511C13.1527 21.0511 13.1527 21.0511 13.1932 21.0511C13.1932 21.0511 13.1932 21.0511 13.2336 21.0106C13.2741 20.9701 13.2741 20.9296 13.2741 20.8891C13.2741 20.8487 13.2741 20.8082 13.2336 20.7677C13.2336 20.7272 13.1932 20.6867 13.1527 20.6462C13.1122 20.6058 12.9907 20.5653 12.9503 20.5653C12.9098 20.6462 12.9098 20.7272 12.9098 20.8082Z" fill="white"/>
<path d="M13.2742 21.2128C13.2742 21.2128 13.2337 21.2128 13.2337 21.1723C13.2337 21.1723 13.1932 21.1319 13.1528 21.0509C13.1528 21.0104 13.1123 20.9699 13.1123 20.9699C13.0718 20.9294 13.0718 20.889 13.1123 20.8485C13.1528 20.808 13.1932 20.808 13.2337 20.8485C13.2337 20.8485 13.2742 20.889 13.3147 20.9699C13.3147 21.0104 13.3552 21.0509 13.3552 21.0509C13.3957 21.0914 13.3957 21.1319 13.3552 21.1723C13.3147 21.2128 13.2742 21.2128 13.2742 21.2128Z" fill="white"/>
<path d="M12.6669 24.0469C12.6264 24.0469 12.6264 24.0469 12.5859 24.0065C12.5859 23.966 12.5859 23.9255 12.6264 23.9255C12.9098 23.7636 13.1122 23.6016 13.2337 23.4802C13.2741 23.4397 13.3146 23.3587 13.3551 23.2778C13.3956 23.1968 13.3956 23.1158 13.3956 23.0349C13.3551 22.9944 13.3146 22.9539 13.2741 22.9134C13.1932 22.8729 13.1122 22.8729 13.0312 22.8729C12.9503 22.9134 12.9098 22.9944 12.9503 23.0349C12.9503 23.0754 12.9908 23.0754 13.0312 23.0754H13.0717C13.1122 23.0349 13.1527 23.0349 13.1932 23.0754C13.2337 23.1158 13.2337 23.1563 13.1932 23.1968C13.1527 23.2373 13.0717 23.2778 12.9908 23.2778C12.9098 23.2778 12.8288 23.1968 12.7884 23.1563C12.7479 23.0349 12.7884 22.8729 12.9503 22.792C13.0717 22.7515 13.1932 22.7515 13.3146 22.8325C13.3956 22.8729 13.4361 22.9539 13.4766 22.9944C13.517 23.1158 13.517 23.2373 13.4361 23.3587C13.3956 23.4397 13.3146 23.5611 13.2741 23.6016C13.2337 23.6826 13.0312 23.885 12.6669 24.0469Z" fill="white"/>
<path d="M14.0434 26.4353C13.9625 26.4353 13.8815 26.4353 13.8005 26.3949H13.76V26.3544C13.7196 26.2734 13.6791 26.152 13.6791 25.99C13.6791 25.7471 13.76 25.5042 13.9625 25.3423C14.1244 25.2209 14.2458 25.1804 14.4078 25.1399C14.5292 25.1399 14.5697 25.1399 14.8531 25.1804L15.015 25.2209L14.8936 25.3018C14.7721 25.3828 14.6911 25.5042 14.6102 25.7067C14.6102 25.7471 14.5697 25.7876 14.5697 25.8281C14.5292 25.99 14.4887 26.1924 14.2863 26.3139C14.2054 26.3949 14.1244 26.4353 14.0434 26.4353ZM13.8815 26.2329C14.0029 26.2734 14.1244 26.2734 14.1649 26.2329C14.2863 26.152 14.3268 25.99 14.3673 25.8281C14.3673 25.7876 14.4078 25.7067 14.4078 25.6662C14.4483 25.5447 14.5292 25.4233 14.6102 25.3018C14.4887 25.2613 14.4483 25.2613 14.3673 25.3018C14.2054 25.3018 14.1244 25.3423 14.0029 25.4638C13.841 25.5852 13.76 25.7876 13.8005 25.9495C13.841 26.071 13.841 26.152 13.8815 26.2329Z" fill="white"/>
<path d="M13.8814 26.3948C13.8409 26.3948 13.8004 26.3543 13.8004 26.3543C13.8004 26.3138 13.8004 26.2733 13.8409 26.2733L13.8814 26.2329C13.9623 26.1114 13.9623 26.0304 14.0028 25.9495C14.0028 25.8685 14.0028 25.7876 14.0838 25.6661C14.1243 25.6256 14.1648 25.6256 14.2052 25.6661C14.2457 25.7066 14.2457 25.7471 14.2052 25.7876C14.1648 25.7876 14.1648 25.828 14.1648 25.909C14.1648 25.99 14.1648 26.1519 14.0028 26.2733C14.0028 26.3138 13.9623 26.3543 13.8814 26.3948Z" fill="white"/>
<path d="M16.8365 32.3054C16.796 32.3054 16.7556 32.2649 16.7556 32.2244C16.7556 32.1839 16.7556 32.1434 16.7556 32.1029C16.7151 31.8196 16.7151 31.6576 16.3912 31.5362C16.2698 31.4957 16.0674 31.4552 15.9054 31.4552C15.784 31.4552 15.703 31.4552 15.5816 31.4147C15.4601 31.3743 15.2982 31.3338 15.1363 31.2528C15.0148 31.1314 14.9338 30.9289 14.9338 30.767C14.9338 30.5646 15.0553 30.4027 15.2172 30.3217C15.2577 30.2812 15.2982 30.3217 15.3387 30.3622C15.3791 30.4027 15.3387 30.4431 15.2982 30.4836C15.1767 30.5646 15.0958 30.686 15.0958 30.8075C15.0958 30.9289 15.1363 31.0909 15.2577 31.1718C15.3791 31.2528 15.5006 31.2933 15.622 31.3338C15.703 31.3338 15.8245 31.3743 15.9054 31.3743C16.0674 31.3743 16.2698 31.4147 16.4317 31.4552C16.8365 31.6171 16.877 31.9005 16.9175 32.1434C16.9175 32.1839 16.9175 32.2244 16.9175 32.2649C16.9175 32.2649 16.877 32.2649 16.8365 32.3054Z" fill="white"/>
<path d="M14.0431 28.8239C14.0027 28.8239 14.0027 28.8239 14.0431 28.8239C13.9622 28.7834 13.9622 28.7429 13.9622 28.7025C14.0836 28.5 14.0836 28.2976 14.0431 28.1357C13.9622 27.9738 13.8407 27.8118 13.5978 27.6904C13.5573 27.6904 13.5169 27.6499 13.4359 27.6094C13.1525 27.5285 12.9501 27.407 12.8691 27.2856C12.8691 27.2451 12.8691 27.2046 12.9096 27.2046C12.9501 27.2046 12.9906 27.2046 12.9906 27.2451C13.0311 27.326 13.3145 27.4475 13.4764 27.488C13.5573 27.5285 13.5978 27.5285 13.6383 27.5689C13.9217 27.6904 14.0836 27.8928 14.1646 28.0952C14.2456 28.2976 14.2051 28.5405 14.0836 28.7834C14.0836 28.8239 14.0431 28.8239 14.0431 28.8239Z" fill="white"/>
<path d="M12.0192 31.4147H11.9787C11.9382 31.3742 11.9382 31.3338 11.9787 31.2933C12.0192 31.2528 12.1002 31.0099 12.1002 30.9289V30.8885C12.1002 30.8075 12.1002 30.767 12.1002 30.686C12.1002 30.5646 12.0192 30.4431 11.9382 30.4027C11.8977 30.3622 11.8168 30.3622 11.7763 30.3622C11.6548 30.3622 11.5739 30.4027 11.5334 30.4431C11.4524 30.5241 11.4524 30.6051 11.4929 30.686C11.4929 30.7265 11.5334 30.767 11.5739 30.767C11.5739 30.767 11.6144 30.767 11.6548 30.767C11.6953 30.7265 11.7358 30.686 11.7358 30.6456C11.7358 30.6051 11.7763 30.5646 11.8168 30.5646C11.8573 30.5646 11.8977 30.6051 11.8977 30.6456C11.8977 30.767 11.8573 30.848 11.7763 30.9289C11.6953 30.9694 11.6548 30.9694 11.5739 30.9694C11.4929 30.9289 11.412 30.8884 11.3715 30.8075C11.2905 30.686 11.331 30.5241 11.4524 30.4027C11.5334 30.3217 11.6548 30.2812 11.8168 30.2407C11.9382 30.2407 12.0192 30.2812 12.1002 30.3217C12.2216 30.4027 12.3026 30.5646 12.3026 30.686C12.3026 30.767 12.3026 30.848 12.3026 30.9289V30.9694C12.3026 31.0909 12.1811 31.3338 12.1406 31.4147C12.0597 31.4147 12.0597 31.4147 12.0192 31.4147Z" fill="white"/>
<path d="M12.9098 32.3054C12.8693 32.3054 12.8693 32.3054 12.8289 32.265C12.8289 32.2245 12.8289 32.184 12.8693 32.184C13.1122 32.103 13.2742 31.9411 13.3147 31.7387C13.3147 31.6982 13.3147 31.6982 13.3551 31.6577C13.3956 31.4958 13.4766 31.2529 13.6385 31.091C13.8004 30.929 14.0029 30.8481 14.2458 30.7671C14.2862 30.7671 14.3267 30.7671 14.3267 30.8076C14.3267 30.8481 14.3267 30.8885 14.2862 30.8885C14.0838 30.9695 13.8814 31.0505 13.76 31.1719C13.6385 31.2934 13.598 31.4958 13.5575 31.6577C13.5575 31.6982 13.5575 31.7387 13.5171 31.7387C13.4361 31.9816 13.2337 32.184 12.9098 32.3054C12.9503 32.3054 12.9503 32.3054 12.9098 32.3054Z" fill="white"/>
<path d="M12.9097 29.8761C12.8692 29.8761 12.8692 29.8761 12.8287 29.8761H12.7883C12.5454 29.8761 12.343 29.7951 12.181 29.7142C12.0596 29.6332 12.0191 29.5118 11.9786 29.4308C11.9381 29.3093 11.8572 29.1879 11.6952 29.1474C11.6143 29.1474 11.5738 29.1069 11.5738 29.0664C11.5333 28.9855 11.6143 28.945 11.6547 28.9045C11.9381 28.7426 12.3025 28.7021 12.7073 28.8235C12.8692 28.864 12.9502 28.945 13.0716 29.026C13.1931 29.1474 13.355 29.4308 13.355 29.6332C13.355 29.7142 13.3145 29.7547 13.2741 29.7951C13.2336 29.8356 13.0716 29.8761 12.9097 29.8761ZM11.8167 28.9855C12.0596 29.0664 12.1001 29.2284 12.181 29.3498C12.2215 29.4308 12.262 29.5118 12.343 29.5927C12.4644 29.6737 12.6668 29.7547 12.8692 29.7547H12.9097C13.0312 29.7547 13.1931 29.7547 13.2741 29.6737C13.2741 29.6737 13.3145 29.6332 13.3145 29.5927C13.3145 29.4308 13.1931 29.1879 13.0716 29.1069C12.9907 29.026 12.9097 28.9855 12.7883 28.945C12.3834 28.7831 12.0596 28.8235 11.8167 28.9855Z" fill="white"/>
<path d="M13.3146 29.7547H13.2741C13.0717 29.5928 12.8692 29.4309 12.6263 29.3499C12.5859 29.3499 12.5454 29.3094 12.5859 29.2689C12.5859 29.2284 12.6263 29.188 12.6668 29.2284C12.9097 29.3094 13.1931 29.4713 13.3955 29.6333C13.436 29.6737 13.436 29.7142 13.3955 29.7547C13.355 29.7547 13.3146 29.7547 13.3146 29.7547Z" fill="white"/>
<path d="M14.4483 13.6427C14.2863 13.3998 14.0839 13.2783 13.841 13.2783C13.4362 13.2783 13.0718 13.7236 12.9099 14.2904C13.1528 14.0475 13.7196 13.6831 14.4483 13.6427Z" fill="white"/>
<path d="M14.6505 14.0475C14.6101 13.9665 14.5696 13.8855 14.5291 13.8046C13.598 13.7641 12.9503 14.4118 12.8288 14.5332C12.7883 14.6547 12.7883 14.7761 12.7883 14.8976C12.7883 15.1 12.8288 15.2619 12.8693 15.4239C13.1527 15.0595 13.7599 14.2903 14.6505 14.0475Z" fill="white"/>
<path d="M14.1647 14.4119C13.5575 14.7762 13.1527 15.343 12.9907 15.5859C13.1931 15.8692 13.4765 15.9907 13.8409 15.9907C13.8813 15.9907 13.9218 15.9907 13.9623 15.9907C14.3267 15.343 14.2052 14.6548 14.1647 14.4119Z" fill="white"/>
<path d="M14.2861 14.3311C14.3266 14.5335 14.4885 15.2622 14.1241 15.9504C14.529 15.829 14.8124 15.5051 14.8124 14.8979C14.8124 14.655 14.7719 14.4121 14.6909 14.1692C14.5695 14.2097 14.4075 14.2906 14.2861 14.3311Z" fill="white"/>
<path d="M24.6094 9.91839C24.5689 9.91839 24.5689 9.91839 24.5284 9.8779C24.5284 9.83742 24.5284 9.79694 24.5689 9.79694L26.7145 8.74438C26.755 8.74438 26.7955 8.74438 26.7955 8.78487C26.7955 8.82535 26.7955 8.86583 26.755 8.86583L24.6094 9.91839C24.6499 9.91839 24.6499 9.91839 24.6094 9.91839Z" fill="white"/>
<path d="M22.5044 8.62293C22.4639 8.62293 22.4639 8.62293 22.4639 8.58244C22.4234 8.54196 22.4639 8.50148 22.4639 8.46099L23.476 7.69182C23.5165 7.65134 23.557 7.69182 23.5974 7.69182C23.6379 7.7323 23.5974 7.77279 23.5974 7.81327L22.5854 8.58244C22.5449 8.62293 22.5044 8.62293 22.5044 8.62293Z" fill="white"/>
<path d="M25.5811 12.9141C25.5406 12.9141 25.5001 12.8736 25.5001 12.8331C25.5001 12.7927 25.5001 12.7522 25.5406 12.7522L26.8361 12.5093C26.8765 12.5093 26.917 12.5093 26.917 12.5498C26.917 12.5902 26.917 12.6307 26.8765 12.6307L25.5811 12.9141Z" fill="white"/>
<path d="M3.80133 4.33118C4.28712 4.49311 4.77292 4.53359 5.25871 4.53359C5.58258 4.53359 5.90644 4.53359 6.18982 4.49311C6.2303 4.49311 6.27078 4.45263 6.27078 4.37166C6.27078 4.33118 6.2303 4.2907 6.14934 4.2907C5.38016 4.33118 4.5705 4.37166 3.84181 4.12877C3.03216 3.88587 2.34395 3.31911 1.93912 2.59042C1.7367 2.22607 1.61526 1.78076 1.53429 1.33545C1.53429 1.4569 1.45332 1.53786 1.41284 1.61883C1.49381 2.02366 1.61526 2.388 1.77719 2.71187C2.2225 3.48104 2.95119 4.08828 3.80133 4.33118Z" fill="white"/>
<path d="M2.99169 0.768722C2.95121 0.728239 2.91072 0.768722 2.87024 0.809205C2.87024 0.849687 2.91072 0.930653 2.95121 0.930653C4.20617 1.21403 5.25873 2.2261 5.58259 3.44059C5.58259 3.48107 5.62307 3.52156 5.66356 3.52156C5.66356 3.52156 5.66356 3.52156 5.70404 3.52156C5.74452 3.52156 5.785 3.44059 5.785 3.40011C5.42066 2.10466 4.32762 1.01162 2.99169 0.768722Z" fill="white"/>
<path d="M4.48961 3.19764C4.53009 3.19764 4.57057 3.19764 4.57057 3.15715C4.61105 3.11667 4.57057 3.03571 4.53009 3.03571C3.5585 2.50943 2.66788 1.8617 1.85822 1.09253C1.77725 1.13301 1.73677 1.17349 1.69629 1.25446C2.54643 2.02363 3.43705 2.67136 4.44912 3.19764C4.48961 3.19764 4.48961 3.19764 4.48961 3.19764Z" fill="white"/>
<path d="M1.69621 6.71957C1.69621 6.71957 1.73669 6.76005 1.77717 6.76005C1.81766 6.76005 1.81766 6.76005 1.85814 6.71957C1.89862 6.67908 1.89862 6.59812 1.85814 6.59812C1.33186 6.19329 0.967518 5.38363 0.846069 4.57397V5.38363C1.008 5.90991 1.29138 6.3957 1.69621 6.71957Z" fill="white"/>
<path d="M2.82955 5.50504C2.82955 5.46456 2.74859 5.42407 2.70811 5.42407C2.66762 5.42407 2.62714 5.50504 2.62714 5.54552C3.11293 6.96242 2.82955 8.62222 1.93893 9.79622C1.89845 9.8367 1.89845 9.91767 1.93893 9.91767C1.93893 9.91767 1.97941 9.95815 2.0199 9.95815C2.06038 9.95815 2.06038 9.95815 2.10086 9.91767C3.03197 8.74367 3.31535 6.96242 2.82955 5.50504Z" fill="white"/>
<path d="M5.33954 0.971338C5.86582 0.930855 6.3921 1.0523 6.79693 1.33568H6.83741C6.87789 1.33568 6.91837 1.33568 6.91837 1.2952C6.95886 1.25472 6.95886 1.17375 6.87789 1.17375C6.43258 0.84989 5.82534 0.687958 5.25858 0.768924C5.2181 0.768924 5.17761 0.809407 5.17761 0.890372C5.2181 0.930855 5.25858 0.971338 5.33954 0.971338Z" fill="white"/>
<path d="M8.74015 1.74015C8.78063 1.69966 8.78063 1.6187 8.74015 1.57821C8.69967 1.53773 8.6187 1.53773 8.57822 1.57821C8.01146 2.22594 7.03987 2.50932 6.23021 2.26642C6.18973 2.26642 6.10876 2.26642 6.10876 2.34739C6.10876 2.38787 6.10876 2.46884 6.18973 2.46884C6.39214 2.50932 6.63504 2.5498 6.83746 2.5498C7.52566 2.59028 8.25436 2.26642 8.74015 1.74015Z" fill="white"/>
<path d="M6.10897 11.2131C6.18994 11.2131 6.2709 11.2131 6.35187 11.2131C6.39235 11.2131 6.43283 11.1726 6.43283 11.0916C6.43283 11.0512 6.39235 11.0107 6.31138 11.0107C5.13738 11.1321 3.92289 10.201 3.72048 9.02701C3.72048 8.98653 3.68 8.94604 3.59903 8.94604C3.55855 8.94604 3.51807 8.98653 3.51807 9.06749C3.72048 10.2415 4.89448 11.2131 6.10897 11.2131Z" fill="white"/>
<path d="M6.35172 29.5112C5.4611 29.7946 4.65144 30.4019 4.16565 31.2115C3.67986 32.0212 3.47744 32.9928 3.63937 33.9239C3.63937 33.9643 3.67986 34.0048 3.72034 34.0048C3.76082 34.0048 3.8013 33.9643 3.8013 33.8834C3.63937 32.9928 3.84179 32.0617 4.32758 31.2925C4.81338 30.5233 5.54207 29.9565 6.39221 29.6732C6.43269 29.6732 6.47317 29.5922 6.47317 29.5517C6.47317 29.5517 6.43269 29.5112 6.35172 29.5112Z" fill="white"/>
<path d="M4.93485 34.9766C4.97533 34.9766 5.01582 34.8956 5.01582 34.8551C5.01582 34.8147 4.93485 34.7742 4.89437 34.7742C3.92278 34.9766 2.99167 35.5433 2.34395 36.3125C1.81767 37.0007 1.49381 37.8509 1.41284 38.701C1.49381 38.782 1.53429 38.8629 1.61526 38.9439C1.61526 38.0533 1.93912 37.1222 2.50588 36.434C3.11312 35.7053 4.00374 35.179 4.93485 34.9766Z" fill="white"/>
<path d="M6.18975 34.6528C6.14927 34.6123 6.10879 34.6528 6.06831 34.6528L3.67982 37.1222C3.63933 37.2032 3.63933 37.2437 3.67982 37.2841C3.7203 37.3246 3.80127 37.3246 3.84175 37.2841L5.98734 35.0981C5.66348 36.0292 5.29913 36.7984 4.85382 37.4056C4.24658 38.2557 3.39644 38.8225 2.5463 39.0654C2.50581 39.0654 2.46533 39.1464 2.46533 39.1868C2.46533 39.2273 2.50581 39.2678 2.5463 39.2678C2.5463 39.2678 2.5463 39.2678 2.58678 39.2678C3.51789 39.0249 4.36803 38.4177 5.01575 37.527C5.54203 36.8388 5.94686 35.9077 6.23024 34.8147C6.27072 34.7337 6.23024 34.6932 6.18975 34.6528Z" fill="white"/>
<path d="M6.95902 38.6202C6.95902 38.5797 6.95902 38.5392 6.95902 38.4987C6.91854 38.4583 6.87806 38.4583 6.83757 38.4583C6.43274 38.6202 5.98743 38.7011 5.5826 38.7416C5.54212 38.7416 5.50164 38.7821 5.50164 38.8631C5.50164 38.9036 5.54212 38.944 5.62309 38.944C5.98743 38.9036 6.35178 38.8226 6.71612 38.7416C6.43274 39.1869 5.94695 39.5108 5.62309 39.6727C5.09681 39.9156 4.48957 40.0776 3.92281 40.199C3.92281 40.199 3.88232 40.199 3.88232 40.2395C4.04426 40.28 4.24667 40.28 4.44908 40.28C4.85391 40.199 5.25874 40.0371 5.66357 39.8752C6.10888 39.6727 6.67564 39.2679 6.95902 38.6202Z" fill="white"/>
<path d="M3.11304 31.5356C2.34387 32.5072 1.97952 33.7217 2.02 34.9361C2.02 34.9766 2.06049 35.0171 2.10097 35.0171C2.14145 35.0171 2.18194 34.9766 2.18194 34.8957C2.10097 33.7217 2.5058 32.5476 3.23449 31.6165C3.27497 31.5761 3.27497 31.4951 3.23449 31.4951C3.19401 31.4546 3.11304 31.4546 3.11304 31.5356Z" fill="white"/>
<path d="M9.63075 36.1503C8.61868 36.1098 7.60661 36.3932 6.79695 36.9599C6.75647 37.0004 6.75647 37.0409 6.75647 37.0814C6.79695 37.1219 6.83744 37.1219 6.87792 37.1219C7.64709 36.5956 8.5782 36.3527 9.46882 36.3527C9.14496 37.5267 8.3353 38.5793 7.24226 39.1865C7.20178 39.227 7.1613 39.2675 7.20178 39.3079C7.20178 39.3484 7.24226 39.3484 7.28275 39.3484H7.32323C8.49723 38.7007 9.38786 37.5672 9.67123 36.2717C9.67123 36.2313 9.67123 36.2313 9.67123 36.1908C9.71172 36.1503 9.67123 36.1503 9.63075 36.1503Z" fill="white"/>
<path d="M26.6336 33.1144C26.5931 33.0739 26.5121 33.1144 26.5121 33.1549C26.4716 33.1954 26.5121 33.2764 26.5526 33.2764C27.7266 33.7621 28.6577 34.7337 29.1435 35.8673C29.1435 35.9077 29.184 35.9482 29.2245 35.9482H29.265C29.3054 35.9482 29.3459 35.8673 29.3054 35.8268C28.8197 34.6123 27.8076 33.6002 26.6336 33.1144Z" fill="white"/>
<path d="M27.9693 40.2395C26.0666 39.7537 24.5283 38.1344 24.083 36.2317C25.0141 36.515 25.8642 36.9604 26.6739 37.5271C26.7144 37.5676 26.7953 37.5676 26.7953 37.4866C26.8358 37.4462 26.8358 37.3652 26.7549 37.3652C25.9047 36.7579 24.9331 36.3126 23.9615 35.9888C23.9211 35.9888 23.8806 35.9888 23.8806 36.0293C23.8401 36.0697 23.8401 36.0697 23.8401 36.1102C24.2044 38.0129 25.6618 39.6727 27.4835 40.3204H28.0098C28.0503 40.28 28.0098 40.2395 27.9693 40.2395Z" fill="white"/>
<path d="M30.2769 8.0555C30.3173 8.0555 30.3173 8.0555 30.3578 8.01502C30.3983 7.97453 30.3983 7.93405 30.3578 7.85309C29.6291 7.00295 29.2243 5.82894 29.3458 4.69542C29.3458 4.65494 29.3053 4.57397 29.2648 4.57397C29.2243 4.57397 29.1433 4.61446 29.1433 4.65494C29.0219 5.82894 29.4267 7.08391 30.1959 7.97453C30.2364 8.0555 30.2364 8.0555 30.2769 8.0555Z" fill="white"/>
<path d="M30.2366 6.43652H30.2771C30.3175 6.43652 30.358 6.43652 30.358 6.39604C30.6009 5.99121 30.7629 5.58638 30.8843 5.14107C30.8843 5.10059 30.8438 5.0601 30.8438 5.01962C30.8438 4.97914 30.8438 4.89817 30.8843 4.89817H30.9248C31.0057 4.53383 31.0057 4.16948 31.0057 3.80513C31.0057 3.76465 30.9653 3.68369 30.8843 3.72417C30.8438 3.72417 30.8033 3.76465 30.8033 3.84562C30.8438 4.69576 30.6414 5.58638 30.1961 6.31507C30.1556 6.31507 30.1961 6.39604 30.2366 6.43652Z" fill="white"/>
<path d="M26.5528 1.45695C26.5123 1.41647 26.4313 1.45695 26.4313 1.49744C25.7836 2.50951 24.5691 3.15723 23.3546 3.15723C23.3142 3.15723 23.2737 3.19772 23.2737 3.2382C23.2737 3.27868 23.3142 3.31917 23.3546 3.31917C24.6501 3.31917 25.8646 2.63096 26.5933 1.5784C26.6338 1.53792 26.5933 1.49744 26.5528 1.45695Z" fill="white"/>
<path d="M26.6742 4.69557C26.6742 4.73605 26.7147 4.77653 26.7552 4.77653C26.7552 4.77653 26.7552 4.77653 26.7957 4.77653C26.8362 4.77653 26.8766 4.77653 26.8766 4.73605C27.7673 3.40012 28.8603 2.22611 30.1558 1.21404C30.1962 1.17356 30.1962 1.13308 30.1558 1.09259C30.1153 1.05211 30.0748 1.05211 30.0343 1.09259C28.8198 2.0237 27.7673 3.11674 26.9171 4.3717C26.9576 2.63094 28.0506 0.930662 29.6295 0.121005C29.508 0.0805219 29.4271 0.0805219 29.3056 0.0400391C27.6458 0.971145 26.5528 2.79287 26.6742 4.69557Z" fill="white"/>
<path d="M5.50152 6.71944C5.542 6.71944 5.62296 6.67895 5.62296 6.63847C5.62296 6.59799 5.58248 6.51702 5.542 6.51702C4.89427 6.51702 4.32751 6.47654 3.92268 6.15268C3.8822 6.11219 3.80124 6.11219 3.80124 6.15268C3.76075 6.19316 3.76075 6.27413 3.80124 6.27413C4.28703 6.67895 4.97524 6.71944 5.50152 6.71944Z" fill="white"/>
<path d="M30.034 2.99487C29.7506 3.19728 29.5482 3.23777 29.3458 3.19728C29.3053 3.19728 29.2244 3.19728 29.2244 3.27825C29.2244 3.31873 29.2244 3.3997 29.3053 3.3997C29.3863 3.3997 29.4268 3.44018 29.5077 3.44018C29.7102 3.44018 29.9126 3.35921 30.1555 3.19728C30.8437 2.71149 31.2485 1.9828 31.4914 1.37555C31.4509 1.33507 31.4104 1.25411 31.3295 1.21362C31.1271 1.82087 30.7222 2.54956 30.034 2.99487Z" fill="white"/>
<path d="M30.8844 4.89779C30.8439 4.93828 30.8034 4.97876 30.8439 5.01924C30.8439 5.05972 30.8844 5.10021 30.8844 5.14069C31.1273 5.78842 31.2487 6.51711 31.2083 7.20532C31.2083 7.2458 31.2487 7.32676 31.2892 7.32676C31.3297 7.32676 31.3702 7.28628 31.3702 7.2458C31.4107 6.47662 31.2487 5.66697 30.9654 4.97876C30.9654 4.93828 30.9249 4.93828 30.8844 4.89779C30.9249 4.85731 30.9249 4.85731 30.8844 4.89779Z" fill="white"/>
<path d="M27.4433 5.54564C27.7267 5.66709 27.9291 5.90999 28.091 6.23385C28.2125 6.55771 28.253 6.92206 28.2934 7.20544C28.2934 7.5293 28.2934 7.81268 28.253 8.05558C28.253 8.09606 28.2934 8.17703 28.3339 8.17703C28.3744 8.17703 28.4149 8.13655 28.4149 8.09606C28.4554 7.81268 28.4554 7.5293 28.4554 7.20544C28.4554 6.92206 28.4149 6.51723 28.253 6.15289C28.091 5.78854 27.8076 5.50516 27.5243 5.38371C27.4838 5.34323 27.4028 5.38371 27.4028 5.42419C27.3623 5.46468 27.3623 5.54564 27.4433 5.54564Z" fill="white"/>
<path d="M25.4596 3.68335C25.4191 3.68335 25.3382 3.68335 25.3382 3.76432C25.1762 4.33108 24.8524 4.89783 24.4071 5.34315C24.3666 5.38363 24.3666 5.46459 24.4071 5.50508C24.4071 5.50508 24.4476 5.54556 24.488 5.54556C24.5285 5.54556 24.5285 5.54556 24.569 5.50508C25.0143 5.05977 25.3382 4.45252 25.5406 3.84528C25.5406 3.76432 25.5001 3.68335 25.4596 3.68335Z" fill="white"/>
<path d="M25.1761 1.61867C25.2571 1.61867 25.2976 1.57819 25.2976 1.5377C25.2976 1.49722 25.3381 1.45674 25.3381 1.41626C25.6619 0.849496 26.2692 0.444668 26.8764 0.282737C26.9169 0.282737 26.9574 0.201771 26.9574 0.161288C26.9574 0.120805 26.8764 0.0803223 26.8359 0.0803223C26.1477 0.242254 25.5 0.687565 25.1357 1.29481C25.0952 1.33529 25.0547 1.41626 25.0547 1.45674C25.0547 1.57819 25.0952 1.61867 25.1761 1.61867Z" fill="white"/>
<path d="M29.4673 34.9763C29.4268 34.9763 29.3864 35.0168 29.3864 35.0978C29.3864 35.1382 29.4268 35.1787 29.4673 35.1787C30.3175 35.1787 31.1676 35.624 31.6534 36.3527C31.6534 36.3932 31.6939 36.3932 31.7344 36.3932H31.7748C31.8153 36.3527 31.8153 36.3123 31.8153 36.2718C31.3295 35.4621 30.3984 34.9763 29.4673 34.9763Z" fill="white"/>
<path d="M27.9291 37.8912C27.3218 36.7982 26.998 35.5432 27.0384 34.3287C27.0384 34.2882 26.998 34.2073 26.9575 34.2073C26.917 34.2073 26.836 34.2478 26.836 34.2882C26.7955 35.5837 27.1194 36.8387 27.7671 37.9722C28.2529 38.8223 28.9006 39.551 29.6698 40.1178C29.7508 40.0773 29.8318 40.0773 29.9127 40.0368C29.1031 39.5105 28.4149 38.7414 27.9291 37.8912Z" fill="white"/>
<path d="M30.3581 36.1913C30.3581 36.1508 30.3176 36.0698 30.2772 36.0698C30.2367 36.0698 30.1557 36.1103 30.1557 36.1508C30.1152 37.2843 30.3581 38.4583 30.8844 39.4704C30.9249 39.4299 31.0058 39.3894 31.0463 39.3489C30.5605 38.4178 30.3176 37.3248 30.3581 36.1913Z" fill="white"/>
<defs>
<linearGradient id="paint0_linear_0_1" x1="16.5416" y1="40.2912" x2="16.5416" y2="4.80309e-06" gradientUnits="userSpaceOnUse">
<stop stop-color="#7CCAB2"/>
<stop offset="0.331" stop-color="#7BCAB4"/>
<stop offset="0.5967" stop-color="#76CABB"/>
<stop offset="0.8391" stop-color="#6DC9C6"/>
<stop offset="1" stop-color="#64C8D1"/>
</linearGradient>
</defs>
</svg>
