<svg width="68" height="67" viewBox="0 0 68 67" fill="none" xmlns="http://www.w3.org/2000/svg">
<path fill-rule="evenodd" clip-rule="evenodd" d="M14.8573 5.78622C18.5057 3.30487 22.6094 1.57045 26.9315 0.683014C31.2536 -0.204419 35.7087 -0.227303 40.0397 0.615682C44.3707 1.45867 48.492 3.15084 52.1657 5.59458C55.8395 8.03832 58.993 11.1853 61.4444 14.8539C63.8959 18.5225 65.5967 22.6402 66.4487 26.9695C67.3008 31.2987 67.2872 35.7538 66.4088 40.0778C65.5304 44.4018 63.8046 48.509 61.3309 52.1627C58.8572 55.8163 55.6845 58.944 51.996 61.3653C44.6257 66.2909 35.6007 68.0869 26.9062 66.3582C18.2118 64.6295 10.5602 59.5178 5.63465 52.1475C0.709123 44.7773 -1.08685 35.7522 0.641827 27.0578C2.3705 18.3634 7.48223 10.7118 14.8525 5.78622H14.8573ZM17.5121 57.3975C20.6399 59.5109 24.1545 60.9853 27.854 61.736C31.5535 62.4867 35.3649 62.499 39.0691 61.7719C42.7733 61.0449 46.2973 59.593 49.4386 57.4997C52.5799 55.4064 55.2766 52.7129 57.3735 49.574C59.4705 46.4351 60.9265 42.9128 61.6578 39.2094C62.3891 35.5061 62.3813 31.6947 61.6349 27.9943C60.8885 24.294 59.4181 20.7776 57.3083 17.6473C55.1986 14.5171 52.491 11.8346 49.3411 9.75411C43.0228 5.58079 35.3093 4.07858 27.8866 5.57587C20.4639 7.07315 13.9359 11.4481 9.72953 17.7445C5.52313 24.0408 3.9805 31.7464 5.43883 39.1768C6.89717 46.6072 11.2379 53.1581 17.5121 57.3975ZM26.2643 28.8009C26.2643 30.0673 25.7613 31.2818 24.8658 32.1773C23.9704 33.0727 22.7559 33.5758 21.4895 33.5758C20.2231 33.5758 19.0086 33.0727 18.1132 32.1773C17.2177 31.2818 16.7147 30.0673 16.7147 28.8009C16.7147 27.5346 17.2177 26.3201 18.1132 25.4246C19.0086 24.5292 20.2231 24.0261 21.4895 24.0261C22.7559 24.0261 23.9704 24.5292 24.8658 25.4246C25.7613 26.3201 26.2643 27.5346 26.2643 28.8009ZM50.1385 28.8009C50.1385 30.0673 49.6355 31.2818 48.74 32.1773C47.8446 33.0727 46.6301 33.5758 45.3637 33.5758C44.0973 33.5758 42.8828 33.0727 41.9874 32.1773C41.0919 31.2818 40.5889 30.0673 40.5889 28.8009C40.5889 27.5346 41.0919 26.3201 41.9874 25.4246C42.8828 24.5292 44.0973 24.0261 45.3637 24.0261C46.6301 24.0261 47.8446 24.5292 48.74 25.4246C49.6355 26.3201 50.1385 27.5346 50.1385 28.8009ZM33.4266 47.9003C30.832 47.9067 28.2844 47.2082 26.0558 45.8794C23.8272 44.5507 22.0014 42.6416 20.7733 40.3561L16.6192 42.648C18.2911 45.7419 20.7847 48.3142 23.8253 50.0812C26.8659 51.8483 30.3353 52.7416 33.8512 52.6626C37.3671 52.5835 40.7929 51.5353 43.7511 49.6335C46.7092 47.7316 49.0848 45.0499 50.616 41.884L46.3187 39.8308C45.1441 42.2506 43.312 44.2908 41.0321 45.7179C38.7521 47.145 36.1164 47.9013 33.4266 47.9003Z" fill="#61C4C9"/>
</svg>
