<svg width="27" height="24" viewBox="0 0 27 24" fill="none" xmlns="http://www.w3.org/2000/svg">
<path d="M0 11.8506L6.58266 17.1167V13.1671H18.4314V10.5341H6.58266V6.58447L0 11.8506Z" fill="white"/>
<path d="M14.4831 4.52375e-05C12.9264 -0.00427127 11.3842 0.30036 9.94604 0.896292C8.50785 1.49222 7.2022 2.36761 6.10474 3.47174L7.96631 5.33331C9.70677 3.59286 12.0212 2.63311 14.4831 2.63311C16.9451 2.63311 19.2595 3.59286 21 5.33331C22.7404 7.07377 23.7002 9.38823 23.7002 11.8501C23.7002 14.3121 22.7404 16.6265 21 18.367C19.2595 20.1074 16.9451 21.0672 14.4831 21.0672C12.0212 21.0672 9.70677 20.1074 7.96631 18.367L6.10474 20.2285C8.34152 22.4667 11.3169 23.7002 14.4831 23.7002C17.6494 23.7002 20.6248 22.4667 22.8615 20.2285C25.0997 17.9918 26.3332 15.0164 26.3332 11.8501C26.3332 8.68389 25.0997 5.70853 22.8615 3.47174C21.7641 2.36761 20.4584 1.49222 19.0202 0.896292C17.5821 0.30036 16.0399 -0.00427127 14.4831 4.52375e-05Z" fill="white"/>
</svg>
