<svg width="23" height="23" viewBox="0 0 23 23" fill="none" xmlns="http://www.w3.org/2000/svg">
<path d="M8.863 0H1.67723C1.23264 0.000509685 0.806398 0.177315 0.491982 0.491641C0.177565 0.805968 0.000637385 1.23216 0 1.67675V5.98975C0.000892417 6.43413 0.177948 6.86002 0.492351 7.17406C0.806754 7.48811 1.23285 7.66467 1.67723 7.66505H8.863C9.30767 7.6648 9.73406 7.48807 10.0485 7.17369C10.363 6.85931 10.5398 6.43297 10.5402 5.98831V1.67675C10.5397 1.23212 10.3628 0.805855 10.0484 0.491501C9.73395 0.177146 9.30763 0.000382457 8.863 0V0Z" fill="white"/>
<path d="M8.86306 9.58353H1.67729C1.23262 9.58404 0.806303 9.76091 0.491873 10.0753C0.177442 10.3898 0.00057098 10.8161 6.10352e-05 11.2608V21.3236C0.000571204 21.7683 0.177458 22.1945 0.491902 22.5089C0.806346 22.8232 1.23266 23 1.67729 23.0004H8.86306C9.30773 23.0001 9.73412 22.8234 10.0486 22.509C10.3631 22.1946 10.5399 21.7683 10.5403 21.3236V11.2608C10.5399 10.816 10.3631 10.3897 10.0486 10.0752C9.73416 9.76074 9.30778 9.58391 8.86306 9.58353V9.58353Z" fill="white"/>
<path d="M21.3233 15.3335H14.1356C13.6911 15.3339 13.2648 15.5106 12.9504 15.8249C12.636 16.1391 12.459 16.5652 12.4584 17.0098V21.3223C12.4589 21.7669 12.6358 22.1932 12.9502 22.5076C13.2647 22.8219 13.691 22.9987 14.1356 22.9991H21.3233C21.7679 22.9987 22.1942 22.8219 22.5085 22.5075C22.8229 22.1932 22.9997 21.7669 23 21.3223V17.0098C22.9995 16.5653 22.8227 16.1391 22.5083 15.8249C22.194 15.5106 21.7678 15.3339 21.3233 15.3335V15.3335Z" fill="white"/>
<path d="M21.3233 0H14.1356C13.691 0.000509685 13.2648 0.177315 12.9504 0.491641C12.6359 0.805968 12.459 1.23216 12.4584 1.67675V11.7396C12.4589 12.1843 12.6358 12.6106 12.9502 12.925C13.2646 13.2395 13.6909 13.4163 14.1356 13.4169H21.3233C21.7679 13.4163 22.1942 13.2395 22.5086 12.925C22.8229 12.6106 22.9997 12.1843 23.0001 11.7396V1.67675C22.9995 1.2322 22.8227 0.806011 22.5084 0.49167C22.194 0.17733 21.7679 0.000509945 21.3233 0V0Z" fill="white"/>
</svg>
